<svg xmlns="http://www.w3.org/2000/svg" viewBox="0 0 324.37 430.63"><defs><style>.cls-1{fill:#f24772;}.cls-2{fill:#f24771;}.cls-3{fill:#06cfd3;}.cls-4{fill:#f57a96;}.cls-5{fill:#fcc10c;}.cls-6{fill:#07ced2;}.cls-7{fill:#fba31e;}.cls-8{fill:#fc9418;}.cls-9{fill:#faa41f;}.cls-10{fill:#faa31d;}.cls-11{fill:#03d0d2;}.cls-12{fill:#0bcfd3;}.cls-13{fill:#1db1b2;}.cls-14{fill:#f4961a;}.cls-15{fill:#1fb2af;}.cls-16{fill:#21b2b1;}.cls-17{fill:#fdfbfb;}.cls-18{fill:#fdfbfc;}.cls-19{fill:#f46485;}.cls-20{fill:#fdbe10;}.cls-21{fill:#fbf2f4;}.cls-22{fill:#fcbb14;}.cls-23{fill:#fdbe12;}.cls-24{fill:#fc9510;}.cls-25{fill:#f14873;}</style></defs><title>Asset 1</title><g id="Layer_2" data-name="Layer 2"><g id="Layer_1-2" data-name="Layer 1"><path class="cls-1" d="M308.72,323.26c.18,3.81.77,7.65.47,11.42-1.06,13-10.11,22.05-23.25,22.14-32.29.2-64.59-.17-96.89-.35-8,0-16-.28-24-.39q-41.45-.57-82.89-1.13c-13.16-.2-18.55-9.06-11.9-20.44,5-8.58,11.16-16.52,16.77-24.77,1-1.49,1.9-3.07,2.85-4.61l10.46-11.06v41.59l22.81-2.4c0-3.42,0-5.91,0-8.39-.23-16-.36-31.95-.78-47.92-.1-4,.66-6.1,5.31-6.09,5.1,0,10.2-.88,15.83-1.43.45-5.86.89-11.63,1.34-17.4,1.94-1.25,3.95-2.42,5.83-3.77,19.85-14.22,40.87-26.4,64-34.39,15.05-5.21,30.56-9.06,45.86-13.51,3.45-.48,6.9-.91,10.35-1.43,12.72-1.91,22.55,4.08,26.54,16.34.92,2.84,1.46,5.79,2.18,8.69,0,1.49-.08,3,.07,4.48,1.59,15.12,3.36,30.23,4.8,45.37C306,290.28,307.31,306.77,308.72,323.26Zm-91.91-36.49c-1.43-13.34-5.53-25.11-13.33-35.51-9.72-13-24-14.79-36.67-4.84a48.34,48.34,0,0,0-15.9,21.3A72.89,72.89,0,0,0,146.56,303c2,16,12.41,29.7,24.82,30.8,16.62,1.49,31.67-4,39-22.09C213.51,303.77,214.71,295.09,216.81,286.77Zm-2.37-25.22L233,275.37c3.56,2.66,9.42,4.87,10.06,8.11.73,3.7-3.09,8.36-5.12,12.51-4.8,9.79-9.71,19.53-14.9,29.92,6,3.58,11.54,6.85,17,10.22,3.37,2.07,5.21.92,7-2.36,5-9.22,10.46-18.16,15.38-27.41,9.37-17.6,18.51-35.33,27.66-53.05,1-1.9,2.82-4.13-.33-6-7.13-4.15-14.23-8.34-21.52-12.62-4.78,9.52-9.13,18.16-13.83,27.51l-24.56-19.17Z"/><path class="cls-2" d="M54.89,113.14l3-3.94c-2.85-4.32-5.73-8-7.86-12.08C47.21,91.75,47.85,87,51.29,83.75c4.19-3.93,8.72-2.46,12.88-.12,3.3,1.86,6.07,4.64,9.32,6.59,1.36.81,3.82,1.25,5,.54s1.61-3.14,1.43-4.7c-.56-4.73-2.05-9.39-2.28-14.12-.2-4.25,2.15-7.6,6.35-9.23,4-1.56,7.22.16,9.91,2.84A38.49,38.49,0,0,1,99,72.21c4.07,6.43,4,6.48,11.34,4.13,3.93,1.71,7.74,3.81,11.8,5.07,12.25,3.79,24.93,1.45,32.38-9.28l6.86.52,33.93,10,2.95,1.9c-11.42,12.75-17.11,27.57-15.79,44.77,1,13.13,6.46,24.63,13.7,35.39l-14.41-.9,30.69,19-24,12.31a48.07,48.07,0,0,1-4.05-2.59c-11.23-8.83-22.37-17.78-33.71-26.47-1.68-1.28-4.26-1.37-6.42-2,1.14-3,2.29-6.11,3.79-10.09-2.53.45-3.88.3-4.66.89-6.29,4.78-11.13,4.2-15.19-3.06-1.55-2.78-3.52-2-3.83,1.34l-15.21-4.13c5.68-3.53,5.7-5.38-.49-8.5-4.12-2.08-8.59-3.44-13.19-5.23Q97.23,125,99,114.83l-1.73-.69A30.51,30.51,0,0,0,93,117.23a85.76,85.76,0,0,0-7.66,8.53c-2.65,3.52-4.92,4.31-9,1.6-3.48-2.34-7.91-3.26-12.44-5C63,129,67,132,68.72,136c.69,1.61,1.46,4,.76,5.25-2.22,3.86-5.12,7.33-7.75,11l-20.51,10c0-1.65-.19-3.3-.1-4.94A92.53,92.53,0,0,1,54.89,113.14Zm72.24,14.79c9.37,6.21,18.81,4.36,22.14-5.44,2-5.75,1.67-12.33,1.92-18.55.05-1.18-2.13-2.44-3.28-3.67-1.2,1.4-2.87,2.63-3.46,4.25s.19,3.65-.12,5.42c-.59,3.38-.88,7.06-2.46,10-3.05,5.64-7.94,5.34-10.78-.4-1.84-3.7-3.06-7.71-4.86-11.44-1.3-2.69-2.85-2.83-4.62,0a12.83,12.83,0,0,1-4.29,3.85c-2.11,1.25-4.61,1.87-6.72,3.14-.94.57-1.33,2-2,3.12,1.23.6,2.51,1.8,3.66,1.67a90.47,90.47,0,0,0,9.35-1.84c2.57,3.09,1.61,5.12-.92,7.33-2.16,1.88-3.78,4.38-5.64,6.61l1.45,1.66Z"/><path class="cls-3" d="M54.89,113.14a92.53,92.53,0,0,0-13.77,44c-.09,1.64.06,3.29.1,4.94.34,7.63-.11,15.4,1.22,22.85,2.17,12.21,5.51,24.21,8.36,36.3,4.43,12.11,8.33,24.46,13.45,36.27,5.54,12.75,12.23,25,18.42,37.47-3.6,1.67-7.09,3.69-10.83,4.95-7,2.35-13.57,1.49-18.79-4.2-5.54-6-7.09-13-4.22-20.83.94-2.54,2.15-5,3.7-8.53-7.19,3.45-14.08,5.89-20.3,2.12A40.44,40.44,0,0,1,19.6,256.31c-7.49-11.54-5.49-18.14,7.88-33.05-5.15-1.11-11-1.51-16-3.69-5.78-2.5-7.57-8.64-8.63-14.46-2.5-13.7,1-19.6,15.29-26.74C.57,168.2-2.8,162.71,2,152.11c5.68-12.66,14.54-16.37,29.27-11.26-2.07-2.73-3.53-4.53-4.85-6.43-3.77-5.41-6.45-11.09-3-17.65,3.15-6,8.2-9.64,15-8.57C44,109.09,49.4,111.44,54.89,113.14Z"/><path class="cls-4" d="M82.67,295c-6.19-12.47-12.88-24.72-18.42-37.47-5.12-11.81-9-24.16-13.45-36.27,1.65-1,3.28-2.05,5-3,4.8-2.76,9.61-5.49,14.41-8.23,2.91,1.23,5.72,3,8.75,3.55s4.22,1.45,5,4.38c1,4.16,2.83,8.13,4.3,12.18l1.61,0a94,94,0,0,0,3.9-8.87c1-3.11,2-4.37,6-3.77,4.4.68,9.49,1.81,14.58-2.54l-13.32-9.26,4.46-6.63c13.3-.26,26.35,1.13,38.8,6.1,6.26,2.5,12.38,5.34,18.56,8-7.48,7.27-15.12,14.4-22.39,21.89-3.41,3.52-6.11,7.73-9.14,11.63l-52.66,2.87c0,6.69-.11,13,0,19.29.15,6.61.59,6.76,7,5.74,4.81-.77,9.7-1.12,14.87-1.69v21.19L89.91,305.13Q86.3,300.06,82.67,295Z"/><path class="cls-5" d="M196.2,164.68c-7.24-10.76-12.7-22.26-13.7-35.39-1.32-17.2,4.37-32,15.8-44.77l19.12,10.64L223,99.09c6.8,7.86,14.53,15.11,20.19,23.71,9.31,14.13,4.87,28.52-10.11,36.27C221.46,165.08,209,165.82,196.2,164.68Zm26.27-25.39c0-5.3-2.74-9-6.86-9.18-5.84-.26-11.17,5-11.15,10.94,0,5,4.32,8.93,9.91,9C219.77,150.05,222.44,146.51,222.47,139.29Z"/><path class="cls-6" d="M131.17,246.67c3-3.9,5.73-8.11,9.14-11.63,7.27-7.49,14.91-14.62,22.39-21.89l25.77-18.09,24-12.31c7.18-2.5,14.29-5.19,21.54-7.45,8.94-2.79,17,.58,21,9.14,2.37,5.05,3.68,10.59,5.46,15.92-15.3,4.45-30.81,8.3-45.86,13.51-23.1,8-44.12,20.17-64,34.39-1.88,1.35-3.89,2.52-5.84,3.77-.21-1.93-.42-3.86-.69-6.36Z"/><path class="cls-7" d="M167.55,429.69V410c-4.14-.72-6.3.51-6.08,4.78,0,.5,0,1-.05,1.5-.49,11.27-1.86,12.45-14.21,11.87.85-17,1.69-34.07,2.57-51.8l14.3-1.59c-.59,8.05-1.15,15.55-1.72,23.27,4.5.84,6.84,0,6.71-4.67-.09-3.31.6-6.65.42-10-.23-4.37,1.78-5.94,5.84-6.06,2.62-.07,5.23-.56,8.47-.93-.28,4.76-.46,9.17-.84,13.57-.83,9.78-2.13,19.53-2.5,29.32-.2,5.16-1.71,8.12-7,8.86A58.37,58.37,0,0,0,167.55,429.69Z"/><path class="cls-8" d="M308.72,323.26c-1.41-16.49-2.68-33-4.25-49.45-1.44-15.14-3.21-30.25-4.8-45.37-.15-1.48-.06-3-.07-4.48,3.46.35,6.93.66,10.39,1.06,9,1.06,14.9,6.89,14.34,16a247.37,247.37,0,0,1-4.14,30c-3.07,16.46-6.64,32.82-10.06,49.21A15.16,15.16,0,0,1,308.72,323.26Z"/><path class="cls-9" d="M104.6,415.09c4.77,0,9.07.3,13.29-.12a14.35,14.35,0,0,0,6.21-2.77c.69-.48.85-2.47.48-3.47-.25-.66-2-1.19-2.91-1.06-2,.26-3.83,1.12-5.77,1.54-7.83,1.69-13.17-2.81-12.83-10.75.53-12.42,9.69-21.28,23.29-22,4.16-.23,8.38.57,13.09.93l-2.23,11.6c-4.11,0-7.95-.42-11.64.13a26.65,26.65,0,0,0-8.6,3.3c-.87.48-.87,2.56-1.26,3.91a17.61,17.61,0,0,0,4,.56c3.28-.3,6.55-1.37,9.79-1.24,5.09.2,8.11,3.25,9.14,8.34,1.91,9.39-3.46,20-12.92,22.67-5.74,1.65-12.11,1.21-18.2,1.39a3.92,3.92,0,0,1-2.82-2.55C104.39,421.87,104.6,418.24,104.6,415.09Z"/><path class="cls-10" d="M189.52,406.25c.28-9.8,2.88-18.63,10.76-25.24,7.2-6.05,15.69-5.24,21.35,2.16,7.21,9.41,8.2,24.43,2.29,34.91A19.74,19.74,0,0,1,202,428.16c-6.4-1.29-11.55-8.22-12.49-16.93A45.93,45.93,0,0,1,189.52,406.25Zm27.26-1c-1.07-6.72-3.63-11.91-6.84-12.25-3.49-.37-6.68,3.62-8,10.06-.88,4.41-.86,8.87,2.84,11.92,1.31,1.09,5.12,1.41,5.88.49C213.19,412.47,214.82,408.72,216.78,405.26Z"/><path class="cls-7" d="M234.34,430.63c0-8.4-.07-16.51,0-24.62.09-7.32.47-14.63.53-21.94,0-2.94.91-4.85,4-5.14,5.76-.53,11.54-1.62,17.27-1.4,6.42.24,10.82,5.6,11.86,12.82,1,7-3.05,14.81-9.49,17.71a25.75,25.75,0,0,1-6.67,1.92c-3.3.52-4.6,2.2-4.12,5.44a14.66,14.66,0,0,1,0,2C247.93,429.45,247.25,430.14,234.34,430.63Zm12.83-30.58c7.42-.94,10.58-3.25,10.07-6.76-.61-4.15-4-5.39-7-4.26C244.57,391.12,249.11,396.13,247.17,400.05Z"/><path class="cls-11" d="M217.42,95.16,198.3,84.52l-3-1.9-3.21-6.24.57-1.38.75-1,1.12-2,.84-1.11,0,0c4.74-.37,8.52-4.12,10.09-10l1.69-1.06c2.9.39,5.84.64,8.7,1.24,1.52.32,3.75.88,4.22,2,1.71,3.88,4.84,3.95,8.19,3.93l-.69,2.65,2,11.89L229.48,83c-5.18,2.12-2.47,7.27-4.14,10.74l-.08.19L222,95.66c-.41-1.61-.75-2.93-1.44-5.66Z"/><path class="cls-12" d="M192.12,76.38l3.21,6.24-33.92-10c.82-8.26,3.13-16,8.5-22.51,3.18-3.85,7.25-6,12.32-4.73s7.77,5.25,8.2,10.2c.51,5.74.19,11.56.4,17.33C190.87,74.1,191.67,75.24,192.12,76.38Z"/><path class="cls-13" d="M154.55,72.13c-7.45,10.73-20.13,13.07-32.38,9.28-4.06-1.26-7.87-3.36-11.8-5.07l2.49-19.12A56.83,56.83,0,0,0,154,61.82Q154.28,67,154.55,72.13Z"/><path class="cls-14" d="M154,61.82a56.83,56.83,0,0,1-41.17-4.6q1.42-8.16,2.86-16.32c12,4.93,24.85,5.92,37.61,7.1Q153.68,54.92,154,61.82Z"/><path class="cls-15" d="M153.33,48c-12.76-1.18-25.56-2.17-37.61-7.1q1.16-5.55,2.3-11.09c11,3.42,21.76,2.21,32.49-1.11Z"/><path class="cls-14" d="M150.51,28.7C139.78,32,129,33.23,118,29.81q1.91-6.51,3.8-13l26.16,0Q149.24,22.76,150.51,28.7Z"/><path class="cls-16" d="M148,16.83l-26.16,0c2.37-4.51,4.23-9.38,7.23-13.43,3.21-4.33,8.19-4.56,11.5-.35C143.73,7.08,145.56,12.18,148,16.83Z"/><path class="cls-12" d="M228.25,67.05c-3.35,0-6.48,0-8.19-3.93-.47-1.08-2.7-1.64-4.22-2-2.86-.6-5.8-.85-8.7-1.24A16.4,16.4,0,0,1,228.25,67.05Z"/><path class="cls-12" d="M205.45,61c-1.57,5.87-5.35,9.62-10.09,10Z"/><path class="cls-12" d="M217.42,95.16,220.53,90c.69,2.73,1,4,1.44,5.66l3.29-1.7L223,99.09Z"/><path class="cls-12" d="M229.57,81.59l-2-11.89c.94.77,2.68,1.52,2.69,2.31A90.72,90.72,0,0,1,229.57,81.59Z"/><path class="cls-12" d="M225.34,93.77c1.67-3.47-1-8.62,4.14-10.74Z"/><path class="cls-12" d="M195.4,70.94l-.84,1.11Z"/><path class="cls-12" d="M193.44,74l-.75,1Z"/><path class="cls-17" d="M216.81,286.77c-2.1,8.32-3.3,17-6.47,24.89-7.29,18.12-22.34,23.58-39,22.09-12.41-1.1-22.86-14.81-24.82-30.8a72.89,72.89,0,0,1,4.35-35.23,48.34,48.34,0,0,1,15.9-21.3c12.71-9.95,26.95-8.12,36.67,4.84C211.28,261.66,215.38,273.43,216.81,286.77Zm-22.16,3.75c-1.42-5-2.24-9.95-4.21-14.4-4.08-9.23-11.77-9.78-17.17-1.14a33,33,0,0,0-3.51,28.7c1.48,4.51,4.33,7.84,9.58,8.18s9.07-2.49,11-7S193.21,295.47,194.65,290.52Z"/><path class="cls-17" d="M214.44,261.55l15.37-18.5,24.56,19.17c4.7-9.35,9.05-18,13.83-27.51,7.29,4.28,14.39,8.47,21.52,12.62,3.15,1.85,1.31,4.08.33,6-9.15,17.72-18.29,35.45-27.66,53.05-4.92,9.25-10.41,18.19-15.38,27.41-1.77,3.28-3.61,4.43-7,2.36-5.5-3.37-11.06-6.64-17-10.22,5.19-10.39,10.1-20.13,14.9-29.92,2-4.15,5.85-8.81,5.12-12.51-.64-3.24-6.5-5.45-10.06-8.11Z"/><path class="cls-18" d="M131.17,246.67l13-1c.27,2.5.48,4.43.69,6.36-.44,5.77-.88,11.54-1.33,17.4-5.63.55-10.73,1.45-15.83,1.43-4.65,0-5.41,2.05-5.31,6.09.42,16,.55,31.95.78,47.92,0,2.48,0,5,0,8.39l-22.81,2.4V272.88c-5.17.57-10.06.92-14.87,1.69-6.37,1-6.81.87-7-5.74-.14-6.3,0-12.6,0-19.29Z"/><path class="cls-19" d="M188.47,195.06,162.7,213.15c-6.18-2.69-12.3-5.53-18.56-8-12.45-5-25.5-6.36-38.8-6.1.74-2.42,1.47-4.84,2.29-7.51-6.92-1.73-10.57,3.55-15.42,5.36L82.12,185.44l-1.9,1c.56,5.43,1.13,10.87,1.64,15.71L70.16,210c-4.8,2.74-9.61,5.47-14.41,8.23-1.67,1-3.3,2-5,3C48,209.18,44.61,197.18,42.44,185c-1.33-7.45-.88-15.22-1.22-22.85l20.51-10q-1.14,3.12-2.27,6.23l.9,1.39c4.33-1.26,8.81-2.18,13-3.9,3.49-1.45,5.4-.83,7.37,2.32a103.62,103.62,0,0,0,8.5,11.6c.9,1.09,3.14,2.12,4.2,1.71s1.89-2.69,1.84-4.12a52.78,52.78,0,0,0-1.34-11.8c-1-3.61.17-5,3.47-5.34q5.91-.68,11.84-1.31l15.21,4.13c.34,1.79.54,3.62,1,5.37,1.17,4.11.28,6.92-4.15,8.38-1.85.61-3.4,2.14-5.9,3.79,4.7,2,9.26,2.69,11.62,5.33s2.82,7.4,4.1,11.22l1.66,0c1.14-2.47,2.7-4.84,3.31-7.43.72-3,1.91-3.39,4.86-3.13,3.68.33,7.79,1.65,12.14-1.89L142.4,167l1.89-3c2.16.65,4.74.74,6.42,2,11.34,8.69,22.48,17.64,33.71,26.47A48.07,48.07,0,0,0,188.47,195.06Z"/><path class="cls-20" d="M109.19,148.93q-5.93.65-11.84,1.31c-3.3.38-4.43,1.73-3.47,5.34a52.78,52.78,0,0,1,1.34,11.8c0,1.43-.81,3.73-1.84,4.12s-3.3-.62-4.2-1.71a103.62,103.62,0,0,1-8.5-11.6c-2-3.15-3.88-3.77-7.37-2.32-4.14,1.72-8.62,2.64-13,3.9l-.9-1.39q1.13-3.1,2.27-6.23c2.63-3.62,5.53-7.09,7.75-11,.7-1.22-.07-3.64-.76-5.25-1.72-4-5.75-7-4.79-13.59,4.53,1.74,9,2.66,12.44,5,4.06,2.71,6.33,1.92,9-1.6A85.76,85.76,0,0,1,93,117.23a30.51,30.51,0,0,1,4.22-3.09l1.73.69Q97.24,125,95.51,135.2c4.6,1.79,9.07,3.15,13.19,5.23C114.89,143.55,114.87,145.4,109.19,148.93Z"/><path class="cls-21" d="M127.13,127.93l-10.61,5.68L115.07,132c1.86-2.23,3.48-4.73,5.64-6.61,2.53-2.21,3.49-4.24.92-7.33a90.47,90.47,0,0,1-9.35,1.84c-1.15.13-2.43-1.07-3.66-1.67.65-1.07,1-2.55,2-3.12,2.11-1.27,4.61-1.89,6.72-3.14a12.83,12.83,0,0,0,4.29-3.85c1.77-2.82,3.32-2.68,4.62,0,1.8,3.73,3,7.74,4.86,11.44,2.84,5.74,7.73,6,10.78.4,1.58-2.92,1.87-6.6,2.46-10,.31-1.77-.46-3.82.12-5.42s2.26-2.85,3.46-4.25c1.15,1.23,3.33,2.49,3.28,3.67-.25,6.22,0,12.8-1.92,18.55C145.94,132.29,136.5,134.14,127.13,127.93Z"/><path class="cls-22" d="M144.29,164l-1.89,3,10.68,7.74c-4.35,3.54-8.46,2.22-12.14,1.89-2.95-.26-4.14.14-4.86,3.13-.61,2.59-2.17,5-3.31,7.43l-1.66,0c-1.28-3.82-1.63-8.47-4.1-11.22s-6.92-3.32-11.62-5.33c2.5-1.65,4-3.18,5.9-3.79,4.43-1.46,5.32-4.27,4.15-8.38-.5-1.75-.7-3.58-1-5.37.31-3.31,2.28-4.12,3.83-1.34,4.06,7.26,8.9,7.84,15.19,3.06.78-.59,2.13-.44,4.66-.89C146.58,157.87,145.43,160.93,144.29,164Z"/><path class="cls-23" d="M70.16,210l11.7-7.86c-.51-4.84-1.08-10.28-1.64-15.71l1.9-1,10.09,11.43c4.85-1.81,8.5-7.09,15.42-5.36-.82,2.67-1.55,5.09-2.29,7.51l-4.46,6.63,13.32,9.26c-5.09,4.35-10.18,3.22-14.58,2.54-3.9-.6-4.92.66-6,3.77a94,94,0,0,1-3.9,8.87l-1.61,0c-1.47-4-3.26-8-4.3-12.18-.73-2.93-2-3.86-5-4.38S73.07,211.25,70.16,210Z"/><path class="cls-24" d="M222.47,139.29c0,7.22-2.7,10.76-8.1,10.72-5.59,0-9.9-3.93-9.91-9,0-6,5.31-11.2,11.15-10.94C219.73,130.29,222.49,134,222.47,139.29Z"/><path class="cls-25" d="M194.65,290.52c-1.44,5-2.39,9.85-4.31,14.33s-5.61,7.36-11,7-8.1-3.67-9.58-8.18a33,33,0,0,1,3.51-28.7c5.4-8.64,13.09-8.09,17.17,1.14C192.41,280.57,193.23,285.53,194.65,290.52Z"/></g></g></svg>